PathFileType	4	(X/Y/Z)	../Python\walking\Walking21\task.trc
DataRate	CameraRate	NumFrames	NumMarkers	Units	OrigDataRate	OrigDataStartFrame	OrigNumFrames
200.000000	200.000000	7	30	mm	200.000000	118	474
Frame#	Time	CLAV			STRN			RASI			LASI			PE01			RTH1			RTH2			RTH3			RTB1			RTB3			RHEE			RD5M			RTOE			LTH2			LTH3			LTB1			LTB2			LTB3			LHEE			LTOE			LD5M			RBAK			LTH1			RTB2			C7			PE03			LPSI			PE02			RPSI			T10			
		X1	Y1	Z1	X2	Y2	Z2	X3	Y3	Z3	X4	Y4	Z4	X5	Y5	Z5	X6	Y6	Z6	X7	Y7	Z7	X8	Y8	Z8	X9	Y9	Z9	X10	Y10	Z10	X11	Y11	Z11	X12	Y12	Z12	X13	Y13	Z13	X14	Y14	Z14	X15	Y15	Z15	X16	Y16	Z16	X17	Y17	Z17	X18	Y18	Z18	X19	Y19	Z19	X20	Y20	Z20	X21	Y21	Z21	X22	Y22	Z22	X23	Y23	Z23	X24	Y24	Z24	X25	Y25	Z25	X26	Y26	Z26	X27	Y27	Z27	X28	Y28	Z28	X29	Y29	Z29	X30	Y30	Z30	

119	0.59	-589.2416992187502	1215.528686523438	180.2672576904297	-529.791198730469	1029.374145507813	188.5710449218751	-561.458435058594	838.8339233398442	343.6734008789064	-545.610534667969	841.6095581054692	113.6415328979493	-744.3950195312502	916.0159301757817	219.4868469238282	-716.8101196289065	569.1274414062502	362.7620239257814	-725.8540039062502	492.0379638671877	343.2402648925782	-681.4930419921877	534.4344482421877	350.0432739257814	-817.4325561523442	282.0110473632814	324.1263732910157	-864.6520996093755	218.4035644531251	317.0721435546876	-1026.699584960938	81.28877258300784	251.3976593017579	-887.7755737304692	15.60794067382813	309.2225646972657	-847.993774414063	27.94090080261232	255.0761108398439	-527.1232910156252	525.1855468750002	96.44068145751959	-475.0459594726565	580.8729248046877	72.31714630126956	-423.7358093261721	272.4209289550782	103.4223785400391	-399.1347961425784	197.8823089599611	114.5990447998047	-372.2818298339845	239.8919525146486	116.122169494629	-363.2131958007814	24.34044647216798	170.6598815917969	-186.2920684814454	82.168083190918	174.2398681640626	-212.2225494384767	54.59154891967776	129.9054565429688	-738.4896240234377	1219.851684570313	320.1555786132814	-527.0198974609377	581.6964111328127	75.64309692382815	-875.5614624023442	265.4699096679689	333.327850341797	-711.3831787109377	1310.947631835938	200.8962249755861	-761.2886962890627	857.0687866210942	191.6021575927735	-751.154724121094	874.2160644531255	183.8656921386719	-768.278198242188	857.934448242188	241.7046966552736	-755.3093261718752	883.8306274414067	267.723358154297	-736.8293457031252	1014.416259765625	226.8873596191407	
120	0.595	-581.711364746094	1215.32666015625	179.6741333007813	-521.9410400390627	1029.308837890625	188.1861267089844	-553.5209960937502	838.2561035156255	343.1814575195314	-537.685485839844	841.9107055664067	113.2009353637696	-736.4968872070315	915.8502807617192	219.4794006347657	-709.6109619140627	568.8150634765627	362.4129333496095	-718.8413085937502	491.6890563964846	343.0491943359376	-674.3764648437502	533.9980468750002	349.8186950683595	-812.7214965820317	282.5985412597657	324.3291625976564	-860.9065551757817	219.6735229492189	317.3269348144532	-1024.830932617188	85.27153778076175	251.7672119140626	-887.575561523438	15.81268787384034	309.2318420410157	-847.774536132813	27.90686607360841	255.1963653564454	-517.1556396484377	526.0127563476565	95.99662780761722	-465.1254882812502	582.191589355469	73.74469757080081	-416.8538513183596	272.805633544922	104.177116394043	-393.5773010253909	197.867645263672	115.4088821411133	-366.0169677734376	239.4267120361329	117.0761184692383	-361.5585021972657	24.42533493041994	170.9057312011719	-183.4756622314454	77.5041198730469	176.4000549316407	-209.9072418212892	50.80074310302737	131.6179199218751	-731.0699462890627	1219.640991210938	319.5625000000001	-516.975524902344	582.7710571289065	75.73401641845706	-871.0393676757817	266.9797973632814	333.428192138672	-704.0262451171877	1310.623168945313	200.2528076171876	-753.3040771484377	857.1013793945317	191.1894531250001	-743.2857666015627	874.201293945313	183.6000213623047	-760.2842407226565	857.6166381835942	241.3098297119142	-747.3206176757815	883.5009765625005	267.5447998046876	-729.0137939453127	1014.123229980469	226.7991485595704	
121	0.6	-574.1653442382815	1215.23486328125	179.0829162597657	-514.0672607421877	1029.359497070313	187.7741088867188	-545.5447998046877	837.7481079101567	342.6323242187501	-529.7632446289065	842.3080444335942	112.7230377197266	-728.610534667969	915.7639160156255	219.5112915039064	-702.2088012695315	568.5147094726565	362.0524291992189	-711.5801391601565	491.3507995605471	342.8589782714845	-667.035827636719	533.600769042969	349.5894165039064	-807.7492065429692	283.2407531738282	324.5390930175782	-856.9108886718755	221.0314178466798	317.5816345214845	-1022.669311523438	89.4676208496094	252.0549621582032	-887.3328247070317	16.05400466918946	309.2404174804689	-847.5689086914067	27.84550094604494	255.3304138183595	-507.1595458984377	526.9539794921877	95.50117492675784	-455.2090454101565	583.634460449219	75.30822753906253	-410.0144653320315	273.3424682617189	104.8566360473633	-388.1160888671877	197.999481201172	116.1098022460938	-359.8858032226564	239.0541534423829	117.9736709594727	-360.1786193847657	24.67907333374025	171.0498657226563	-180.8950347900391	72.7878341674805	178.3686981201172	-207.9315948486329	46.99154663085939	133.1331481933594	-723.6394042968752	1219.52587890625	318.964080810547	-506.8703613281252	583.9756469726565	75.8091735839844	-866.2737426757817	268.5688476562501	333.5048217773439	-696.653259277344	1310.395385742188	199.6119995117189	-745.3103637695315	857.2117309570317	190.8118286132813	-735.4084472656252	874.2855834960942	183.3492279052735	-752.2484130859377	857.361450195313	240.9562225341798	-739.298522949219	883.2390747070317	267.4058532714845	-721.1765747070315	1013.923767089844	226.7139587402345	
122	0.605	-566.6065063476565	1215.253051757813	178.4967346191407	-506.174499511719	1029.524536132813	187.3381652832032	-537.540222167969	837.3125610351567	342.0296325683595	-521.8479614257815	842.7981567382817	112.2117767333985	-720.741638183594	915.7550659179692	219.577362060547	-694.595397949219	568.2207641601565	361.6863403320314	-704.0512695312502	491.0169067382815	342.6778869628907	-659.4578857421877	533.2408447265627	349.363006591797	-802.4916992187505	283.9335021972657	324.7611389160157	-852.6354980468755	222.4724578857423	317.836639404297	-1020.166320800782	93.8769226074219	252.2431182861329	-887.0415039062505	16.3376693725586	309.2452697753907	-847.3826293945317	27.75233650207521	255.4783935546876	-497.1764221191409	527.9982910156252	94.95747375488284	-445.3421020507815	585.1851196289065	76.96730804443362	-403.2002258300784	274.0232849121095	105.4276580810547	-382.7268066406251	198.2762756347657	116.6734008789063	-353.8804016113282	238.7777404785157	118.8062057495118	-359.0139465332032	25.0879364013672	171.0986480712891	-178.5202331542969	68.10883331298831	180.1283569335938	-206.2477874755861	43.23642349243165	134.4345703125001	-716.2023925781252	1219.505737304688	318.361297607422	-496.7494201660159	585.2926025390627	75.86224365234378	-861.239379882813	270.2321166992189	333.5560302734376	-689.266784667969	1310.264770507813	198.9754943847657	-737.3137817382815	857.3969726562505	190.4661254882813	-727.5275878906252	874.4668579101567	183.1095123291016	-744.1779785156252	857.1681518554692	240.6406555175782	-731.2507324218752	883.0440063476567	267.3015747070314	-713.3234863281252	1013.817993164063	226.6275787353517	
123	0.61	-559.038024902344	1215.380126953125	177.9187469482422	-498.2678222656252	1029.801635742188	186.8820037841797	-529.5181884765627	836.9518432617192	341.3776245117189	-513.944030761719	843.3770141601567	111.6715087890626	-712.8958129882815	915.821899414063	219.6720581054689	-686.7623291015627	567.926208496094	361.3210754394532	-696.2349243164065	490.6791992187502	342.5148925781251	-651.6292114257815	532.9146728515627	349.1466369628907	-796.9246215820317	284.6710205078126	325.0009765625001	-848.0495605468755	223.9892425537111	318.0928955078126	-1017.269775390625	98.49610900878912	252.3155822753907	-886.695434570313	16.67068672180176	309.2417602539064	-847.220092773438	27.62507247924806	255.6389160156251	-487.2470397949221	529.1326293945315	94.36968994140628	-435.5669860839846	586.8240966796877	78.67350006103518	-396.4045410156252	274.8297119140626	105.8584365844727	-377.3967285156251	198.6864013671876	117.0756454467774	-347.9997558593751	238.5939941406251	119.5673522949219	-358.0140686035157	25.63049316406251	171.0619354248047	-176.3311614990235	63.54821777343753	181.6684570312501	-204.8133697509767	39.60047531127931	135.5117492675782	-708.763610839844	1219.579467773438	317.7551574707032	-486.6583251953127	586.7023925781252	75.88691711425784	-855.909301757813	271.9620361328126	333.5810852050782	-681.8696289062502	1310.231201171875	198.3450469970704	-729.3205566406252	857.6540527343755	190.1488189697266	-719.6481933593752	874.7427368164067	182.8769073486329	-736.0806884765627	857.036254882813	240.3594818115236	-723.1853027343752	882.9147949218755	267.2265930175782	-705.4607543945315	1013.805603027344	226.5356445312501	
124	0.615	-551.4629516601565	1215.614501953125	177.3522491455079	-490.3524169921877	1030.187622070313	186.4097900390626	-521.4897460937502	836.6679687500005	340.6809692382814	-506.0556640625002	844.040161132813	111.1068725585938	-705.0782470703127	915.9623413085942	219.7895050048829	-678.7019042968752	567.6228637695315	360.9634704589845	-688.1114501953127	490.3279724121096	342.379364013672	-643.5372314453127	532.617614746094	348.9470214843751	-791.0238647460942	285.4460754394532	325.2646789550782	-843.1217651367192	225.5716552734376	318.3516845703126	-1013.925048828125	103.3184890747071	252.2590484619142	-886.2882690429692	17.06171226501466	309.2235412597657	-847.0837402343755	27.4645118713379	255.8087615966798	-477.4111328125002	530.3416137695315	93.74285888671878	-425.9216003417971	588.528503417969	80.37285614013675	-389.6335449218752	275.7337341308595	106.122184753418	-372.1254272460939	199.2086791992189	117.299659729004	-342.2500000000001	238.492889404297	120.2534637451172	-357.137908935547	26.28006553649904	170.9523315429688	-174.3144683837891	59.17522430419925	182.9858398437501	-203.5909271240236	36.13938903808595	136.3609466552735	-701.327819824219	1219.74560546875	317.1466674804689	-476.6421203613284	588.1837158203127	75.87705230712893	-850.2555541992192	273.7485656738282	333.5799865722657	-674.464538574219	1310.294677734375	197.7223663330079	-721.3372802734377	857.9799804687505	189.8561248779297	-711.775329589844	875.1103515625005	182.6473236083985	-727.9647216796877	856.9652709960942	240.1086273193361	-715.1105957031252	882.8504028320317	267.1750793457032	-697.594421386719	1013.885986328125	226.4337310791017	
125	0.62	-543.8845825195315	1215.9541015625	176.8005371093751	-482.4336853027346	1030.678833007813	185.9260559082032	-513.4661865234377	836.4626464843755	339.9447326660157	-498.1872253417971	844.7825317382817	110.5225830078126	-697.294128417969	916.1742553710942	219.9236145019532	-670.4073486328127	567.301452636719	360.6205139160157	-679.6626586914065	489.9522705078127	342.2805786132814	-635.1707153320315	532.343688964844	348.7700805664064	-784.7662963867192	286.2500000000001	325.5583496093751	-837.8210449218755	227.2069702148439	318.6145324707032	-1010.076538085938	108.334098815918	252.0643463134767	-885.8130493164067	17.52156066894532	309.1824951171876	-846.9724731445317	27.27547645568849	255.9827423095704	-467.7070007324221	531.6079711914065	93.08255767822268	-416.4386901855471	590.2724609375002	82.00948333740237	-382.9071655273439	276.699676513672	106.2007293701172	-366.9241333007814	199.8142852783204	117.3383178710938	-336.6438903808595	238.4590606689454	120.863624572754	-356.3535156250001	27.00718498229982	170.7844238281251	-172.4599609375001	55.04602432250979	184.0845642089844	-202.5475921630861	32.89846801757814	136.9853210449219	-693.8996582031252	1220.001953125	316.5367126464845	-466.7442321777346	589.7141723632815	75.82695770263675	-844.2503051757817	275.5791931152345	333.5536193847657	-667.0544433593752	1310.4541015625	197.1092071533204	-713.370544433594	858.3715209960942	189.5839538574219	-703.9143066406252	875.5666503906255	182.4166107177735	-719.8388671875002	856.954711914063	239.8836212158204	-707.0352172851565	882.8496704101567	267.1409606933595	-689.7307128906252	1014.058044433594	226.3173980712892	
